# xmcd
#
# Track frame offsets: 
#        150
#        19936
#        37492
#        57546
#        74364
#        90945
#        108012
#        123965
#        152436
#
# Disc length: 2314 seconds
#
# Revision: 0
# Processed by: cddbd v1.5.2PL0 Copyright (c) Steve Scherf et al.
# Submitted via: ExactAudioCopyFreeDBPlugin 1.0
#
DISCID=70090809
DTITLE=Steve Waitt - Blue Parade
DYEAR=2008
DGENRE=Blues
TTITLE0=Coyote
TTITLE1=Love is a Luxury
TTITLE2=Lay It Down
TTITLE3=Gong the Bear
TTITLE4=Changes
TTITLE5=Revolutionary
TTITLE6=Hey Pretty Baby
TTITLE7=Lonesome Star
TTITLE8=Save a Place
EXTD=
EXTT0=
EXTT1=
EXTT2=
EXTT3=
EXTT4=
EXTT5=
EXTT6=
EXTT7=
EXTT8=
PLAYORDER=
